<?xml version="1.0" encoding="utf-8"?>
<!-- Generator: Adobe Illustrator 26.1.0, SVG Export Plug-In . SVG Version: 6.00 Build 0)  -->
<svg version="1.1" id="Camada_1" xmlns="http://www.w3.org/2000/svg" xmlns:xlink="http://www.w3.org/1999/xlink" x="0px" y="0px"
	 viewBox="0 0 50 50" style="enable-background:new 0 0 50 50;" xml:space="preserve">
<style type="text/css">
	.st0{fill:#E6E6E6;}
</style>
<g>
	<path class="st0" d="M25,50C11.2,50,0,38.8,0,25S11.2,0,25,0s25,11.2,25,25S38.8,50,25,50z M25,3C12.9,3,3,12.9,3,25s9.9,22,22,22
		s22-9.9,22-22S37.1,3,25,3z"/>
</g>
<path id="Icon_material-mail-outline" class="st0" d="M37,13H13c-1.7,0-3,1.3-3,3l0,18c0,1.7,1.3,3,3,3h24c1.7,0,3-1.3,3-3V16
	C40,14.3,38.7,13,37,13z M37,34H13V19l12,7.5L37,19V34z M25,23.5L13,16h24L25,23.5z"/>
</svg>
