<?xml version="1.0" encoding="utf-8"?>
<!-- Generator: Adobe Illustrator 26.1.0, SVG Export Plug-In . SVG Version: 6.00 Build 0)  -->
<svg version="1.1" id="Camada_1" xmlns="http://www.w3.org/2000/svg" xmlns:xlink="http://www.w3.org/1999/xlink" x="0px" y="0px"
	 viewBox="0 0 50 50" style="enable-background:new 0 0 50 50;" xml:space="preserve">
<style type="text/css">
	.st0{fill:#E6E6E6;}
</style>
<g>
	<path class="st0" d="M25,50C11.2,50,0,38.8,0,25S11.2,0,25,0s25,11.2,25,25S38.8,50,25,50z M25,3C12.9,3,3,12.9,3,25s9.9,22,22,22
		s22-9.9,22-22S37.1,3,25,3z"/>
</g>
<path id="Icon_material-phone-android" class="st0" d="M30.5,10H19.5c-2.3,0-4.1,1.8-4.1,4.1c0,0,0,0,0,0v21.8
	c0,2.3,1.8,4.1,4.1,4.1c0,0,0,0,0,0h10.9c2.3,0,4.1-1.8,4.1-4.1c0,0,0,0,0,0V14.1C34.5,11.8,32.7,10,30.5,10
	C30.5,10,30.5,10,30.5,10z M27.7,37.3h-5.5v-1.4h5.5L27.7,37.3z M32.2,33.2H17.8V14.1h14.3V33.2z"/>
</svg>
