<?xml version="1.0" encoding="utf-8"?>
<!-- Generator: Adobe Illustrator 26.1.0, SVG Export Plug-In . SVG Version: 6.00 Build 0)  -->
<svg version="1.1" id="Camada_1" xmlns="http://www.w3.org/2000/svg" xmlns:xlink="http://www.w3.org/1999/xlink" x="0px" y="0px"
	 viewBox="0 0 50 50" style="enable-background:new 0 0 50 50;" xml:space="preserve">
<style type="text/css">
	.st0{fill:#313536;}
</style>
<g>
	<path class="st0" d="M25,50C11.2,50,0,38.8,0,25S11.2,0,25,0s25,11.2,25,25S38.8,50,25,50z M25,3C12.9,3,3,12.9,3,25s9.9,22,22,22
		s22-9.9,22-22S37.1,3,25,3z"/>
</g>
<path id="Icon_material-local-phone" class="st0" d="M17.5,23.3c2,3.9,5.2,7.1,9.2,9.2l3.1-3.1c0.4-0.4,0.9-0.5,1.4-0.3
	c1.6,0.5,3.3,0.8,5,0.8c0.8,0,1.4,0.6,1.4,1.4v4.8c0,0.8-0.6,1.4-1.4,1.4c-13,0-23.6-10.6-23.6-23.6c0,0,0,0,0,0
	c0-0.8,0.6-1.4,1.4-1.4h4.9c0.8,0,1.4,0.6,1.4,1.4c0,1.7,0.3,3.4,0.8,5c0.2,0.5,0,1-0.3,1.4L17.5,23.3z"/>
</svg>
