<?xml version="1.0" encoding="utf-8"?>
<!-- Generator: Adobe Illustrator 26.1.0, SVG Export Plug-In . SVG Version: 6.00 Build 0)  -->
<svg version="1.1" id="Camada_1" xmlns="http://www.w3.org/2000/svg" xmlns:xlink="http://www.w3.org/1999/xlink" x="0px" y="0px"
	 viewBox="0 0 543 536" style="enable-background:new 0 0 543 536;" xml:space="preserve">
<style type="text/css">
	.st0{fill:#E6E6E6;}
</style>
<g>
	<polygon class="st0" points="484,459 484,149.4 457.2,149.4 457.2,422.6 328.4,382.5 196.5,422.7 196.5,240 169.6,240 169.6,458.9 
		328.4,410.6 	"/>
	<polygon class="st0" points="329.9,23.6 317.1,0 0.3,171.5 13.1,195.2 97.8,149.3 97.8,459 124.6,459 124.6,134.8 	"/>
	<path class="st0" d="M58.8,527.4c-1,1.3-2.5,2.5-4,3.3c-1.9,0.9-3.9,1.4-5.7,1.4c-6.8,0-12.5-5.7-12.5-13.2
		c0-7.1,4.3-11.4,10.3-12.3c4.3-0.5,8.2,0.1,11.5,3.6c1.4,1.5,4-0.5,2.6-2.2c-3.9-4.1-8.9-5.5-14.6-4.7c-7.6,1.2-13.3,7.6-13.3,15.6
		c0,9.7,7.6,16.6,16,16.6c2.4,0,5-0.7,7.4-1.8c2.1-1,4-2.5,5.3-4.4C62.9,527.5,59.9,525.7,58.8,527.4z"/>
	<path class="st0" d="M96.7,503.3c-1.7-0.2-3.4-0.2-5.2,0c-7.8,1.2-13,7.8-13,15.5c0,10.4,7.1,16.7,15.9,16.7
		c8.4,0,15.7-6.5,15.7-16.7C110.1,510.7,104.3,504.5,96.7,503.3z M94.4,532.1c-6.9,0-12.2-5.1-12.2-13.2c0-6.7,3.9-11.4,9.8-12.4
		c1.4-0.2,2.8-0.2,4.3,0c6,1,10.2,6.1,10.2,12.4C106.5,527.2,101,532.1,94.4,532.1z"/>
	<path class="st0" d="M151.9,504.9v17.4l0.5,7.4l-18.9-25.3c-1.2-1.8-4-1.4-4,1v28.2c0,2.5,3.7,2.4,3.7,0v-17.4l-0.4-6.8l18.4,24.6
		c1,1.7,4.4,1.5,4.4-1v-28.2C155.7,502.7,151.9,502.8,151.9,504.9z"/>
	<path class="st0" d="M188.6,517.6c-5.7-0.4-10.6-0.9-10.6-5.2c0-4.5,6.4-5.8,9.7-5.8c3.5,0,8.8,0.6,10.3,4.4
		c0.7,1.7,4.1,0.8,3.3-1.2c-2.1-5.6-8.5-6.8-13.7-6.8c-6,0-13.5,2.9-13.5,9.4c0,7.3,7.3,8,14.1,8.5c5.4,0.4,10.6,0.8,10.6,5.1
		c0,5-6.5,6.2-10.7,6.2c-3.9,0-9.4-0.9-10.7-5c-0.4-2-4.2-1.3-3.6,0.9c1.6,5.9,9.3,7.6,14.3,7.6c6.1,0,14.4-2.3,14.4-9.8
		C202.6,518.5,195.4,518.2,188.6,517.6z"/>
	<path class="st0" d="M242.9,503.7h-25.5c-2.3,0-2.3,3.4,0,3.4h10.9v26.7c0,1.2,0.9,1.8,1.8,1.8c0.8,0,1.9-0.6,1.9-1.8
		c0-8.9-0.1-17.8-0.1-26.7h11C245.3,507,245.3,503.7,242.9,503.7z"/>
	<path class="st0" d="M288,514.2c0-5.7-4.3-10.6-12.8-10.6h-11.7c-1.1,0-1.8,0.7-1.8,1.7v28.2c0,2.2,3.6,2.2,3.6-0.1V524h9.5
		l9.9,10.8c1.6,1.7,4.3-0.5,2.5-2.4l-8-8.6C285.3,522.8,288,519.2,288,514.2z M275.2,520.9h-9.9v-14h9.9c5.7,0,9.1,3.3,9.1,7.3
		C284.5,517.9,281.7,520.9,275.2,520.9z"/>
	<path class="st0" d="M332,505v16.1c0,14.2-21.6,14.2-21.6,0V505c0-2.2-3.7-2.2-3.7-0.1v16.2c0,9.4,7.3,14.2,14.5,14.2
		c7.2,0,14.5-4.8,14.5-14.2v-16.2C335.7,502.6,332,502.6,332,505z"/>
	<path class="st0" d="M380.8,527.4c-1,1.3-2.5,2.5-4,3.3c-1.9,0.9-3.9,1.4-5.7,1.4c-6.8,0-12.5-5.7-12.5-13.2
		c0-7.1,4.3-11.4,10.3-12.3c4.3-0.5,8.2,0.1,11.5,3.6c1.4,1.5,4-0.5,2.6-2.2c-3.9-4.1-8.9-5.5-14.6-4.7c-7.6,1.2-13.3,7.6-13.3,15.6
		c0,9.7,7.6,16.6,16,16.6c2.4,0,5-0.7,7.4-1.8c2.1-1,4-2.5,5.3-4.4C385,527.5,382,525.7,380.8,527.4z"/>
	<path class="st0" d="M425.3,503.7h-25.5c-2.3,0-2.3,3.4,0,3.4h10.9v26.7c0,1.2,0.9,1.8,1.8,1.8c0.8,0,1.9-0.6,1.9-1.8
		c0-8.9-0.1-17.8-0.1-26.7h11C427.7,507,427.7,503.7,425.3,503.7z"/>
	<path class="st0" d="M443.8,504.4v29.4c0,2.4,3.7,2.3,3.7,0v-29.4C447.5,501.9,443.8,501.9,443.8,504.4z"/>
	<path class="st0" d="M484,503.3c-1.7-0.2-3.4-0.2-5.2,0c-7.8,1.2-13,7.8-13,15.5c0,10.4,7.1,16.7,15.9,16.7
		c8.3,0,15.7-6.5,15.7-16.7C497.4,510.7,491.6,504.5,484,503.3z M481.7,532.1c-6.9,0-12.2-5.1-12.2-13.2c0-6.7,3.9-11.4,9.8-12.4
		c1.4-0.2,2.8-0.2,4.3,0c6,1,10.2,6.1,10.2,12.4C493.8,527.2,488.4,532.1,481.7,532.1z"/>
	<path class="st0" d="M539.3,504.9v17.4l0.5,7.4l-18.9-25.3c-1.2-1.8-4-1.4-4,1v28.2c0,2.5,3.7,2.4,3.7,0v-17.4l-0.4-6.8l18.4,24.6
		c1,1.7,4.4,1.5,4.4-1v-28.2C543,502.7,539.3,502.8,539.3,504.9z"/>
</g>
</svg>
