<?xml version="1.0" encoding="utf-8"?>
<!-- Generator: Adobe Illustrator 26.1.0, SVG Export Plug-In . SVG Version: 6.00 Build 0)  -->
<svg version="1.1" id="Camada_1" xmlns="http://www.w3.org/2000/svg" xmlns:xlink="http://www.w3.org/1999/xlink" x="0px" y="0px"
	 viewBox="0 0 1695 602" style="enable-background:new 0 0 1695 602;" xml:space="preserve">
<style type="text/css">
	.st0{fill:#FFFFFF;}
	.st1{fill:#E6E6E6;}
</style>
<polygon class="st0" points="-172.5,250.5 -191,244.7 -209.8,250.5 -209.8,224.4 -206.7,224.4 -206.7,246.1 -191,241.4 
	-175.7,246.1 -175.7,213.7 -172.5,213.7 "/>
<rect x="-218.4" y="210.5" class="st0" width="3.2" height="40"/>
<rect x="-231.8" y="205.9" transform="matrix(0.8793 -0.4763 0.4763 0.8793 -124.2205 -75.1578)" class="st0" width="42.8" height="3.2"/>
<g>
	<path class="st0" d="M-223.1,258.7c-0.1,0.2-0.3,0.3-0.5,0.4c-0.2,0.1-0.5,0.2-0.7,0.2c-0.8,0-1.5-0.7-1.5-1.6
		c0-0.8,0.5-1.4,1.2-1.5c0.5-0.1,1,0,1.4,0.4c0.2,0.2,0.5-0.1,0.3-0.3c-0.5-0.5-1.1-0.7-1.7-0.6c-0.9,0.1-1.6,0.9-1.6,1.9
		c0,1.2,0.9,2,1.9,2c0.3,0,0.6-0.1,0.9-0.2c0.3-0.1,0.5-0.3,0.6-0.5C-222.6,258.7-222.9,258.5-223.1,258.7z"/>
	<path class="st0" d="M-218.5,255.8c-0.2,0-0.4,0-0.6,0c-0.9,0.1-1.6,0.9-1.6,1.9c0,1.2,0.8,2,1.9,2c1,0,1.9-0.8,1.9-2
		C-216.9,256.7-217.6,256-218.5,255.8z M-218.8,259.3c-0.8,0-1.5-0.6-1.5-1.6c0-0.8,0.5-1.4,1.2-1.5c0.2,0,0.3,0,0.5,0
		c0.7,0.1,1.2,0.7,1.2,1.5C-217.4,258.7-218,259.3-218.8,259.3z"/>
	<path class="st0" d="M-211.9,256v2.1l0.1,0.9l-2.3-3c-0.1-0.2-0.5-0.2-0.5,0.1v3.4c0,0.3,0.4,0.3,0.4,0v-2.1l0-0.8l2.2,2.9
		c0.1,0.2,0.5,0.2,0.5-0.1V256C-211.5,255.8-211.9,255.8-211.9,256z"/>
	<path class="st0" d="M-207.6,257.5c-0.7-0.1-1.3-0.1-1.3-0.6c0-0.5,0.8-0.7,1.2-0.7c0.4,0,1,0.1,1.2,0.5c0.1,0.2,0.5,0.1,0.4-0.1
		c-0.2-0.7-1-0.8-1.6-0.8c-0.7,0-1.6,0.3-1.6,1.1c0,0.9,0.9,1,1.7,1c0.6,0.1,1.3,0.1,1.3,0.6c0,0.6-0.8,0.7-1.3,0.7
		c-0.5,0-1.1-0.1-1.3-0.6c0-0.2-0.5-0.2-0.4,0.1c0.2,0.7,1.1,0.9,1.7,0.9c0.7,0,1.7-0.3,1.7-1.2
		C-205.9,257.7-206.8,257.6-207.6,257.5z"/>
	<path class="st0" d="M-201.1,255.9h-3c-0.3,0-0.3,0.4,0,0.4h1.3v3.2c0,0.1,0.1,0.2,0.2,0.2c0.1,0,0.2-0.1,0.2-0.2
		c0-1.1,0-2.1,0-3.2h1.3C-200.8,256.3-200.8,255.9-201.1,255.9z"/>
	<path class="st0" d="M-195.7,257.1c0-0.7-0.5-1.3-1.5-1.3h-1.4c-0.1,0-0.2,0.1-0.2,0.2v3.4c0,0.3,0.4,0.3,0.4,0v-1.1h1.1l1.2,1.3
		c0.2,0.2,0.5-0.1,0.3-0.3l-1-1C-196,258.2-195.7,257.7-195.7,257.1z M-197.2,257.9h-1.2v-1.7h1.2c0.7,0,1.1,0.4,1.1,0.9
		C-196.1,257.6-196.5,257.9-197.2,257.9z"/>
	<path class="st0" d="M-190.5,256v1.9c0,1.7-2.6,1.7-2.6,0V256c0-0.3-0.4-0.3-0.4,0v1.9c0,1.1,0.9,1.7,1.7,1.7
		c0.9,0,1.7-0.6,1.7-1.7V256C-190,255.8-190.5,255.8-190.5,256z"/>
	<path class="st0" d="M-184.6,258.7c-0.1,0.2-0.3,0.3-0.5,0.4c-0.2,0.1-0.5,0.2-0.7,0.2c-0.8,0-1.5-0.7-1.5-1.6
		c0-0.8,0.5-1.4,1.2-1.5c0.5-0.1,1,0,1.4,0.4c0.2,0.2,0.5-0.1,0.3-0.3c-0.5-0.5-1.1-0.7-1.7-0.6c-0.9,0.1-1.6,0.9-1.6,1.9
		c0,1.2,0.9,2,1.9,2c0.3,0,0.6-0.1,0.9-0.2c0.3-0.1,0.5-0.3,0.6-0.5C-184.1,258.7-184.5,258.5-184.6,258.7z"/>
	<path class="st0" d="M-179.3,255.9h-3c-0.3,0-0.3,0.4,0,0.4h1.3v3.2c0,0.1,0.1,0.2,0.2,0.2c0.1,0,0.2-0.1,0.2-0.2
		c0-1.1,0-2.1,0-3.2h1.3C-179,256.3-179,255.9-179.3,255.9z"/>
	<path class="st0" d="M-177.1,256v3.5c0,0.3,0.4,0.3,0.4,0V256C-176.7,255.7-177.1,255.7-177.1,256z"/>
	<path class="st0" d="M-172.3,255.8c-0.2,0-0.4,0-0.6,0c-0.9,0.1-1.6,0.9-1.6,1.9c0,1.2,0.8,2,1.9,2c1,0,1.9-0.8,1.9-2
		C-170.7,256.7-171.4,256-172.3,255.8z M-172.6,259.3c-0.8,0-1.5-0.6-1.5-1.6c0-0.8,0.5-1.4,1.2-1.5c0.2,0,0.3,0,0.5,0
		c0.7,0.1,1.2,0.7,1.2,1.5C-171.2,258.7-171.8,259.3-172.6,259.3z"/>
	<path class="st0" d="M-165.7,256v2.1l0.1,0.9l-2.3-3c-0.1-0.2-0.5-0.2-0.5,0.1v3.4c0,0.3,0.4,0.3,0.4,0v-2.1l0-0.8l2.2,2.9
		c0.1,0.2,0.5,0.2,0.5-0.1V256C-165.3,255.8-165.7,255.8-165.7,256z"/>
</g>
<image style="overflow:visible;" width="336" height="342" xlink:href="5E2739E2.jpg"  transform="matrix(1 0 0 1 -490 -274)">
</image>
<polygon class="st1" points="634.2,601.8 430.1,538.3 222,601.7 222,314.6 257.2,314.6 257.2,554.2 430.2,501.5 599,554 599,195.9 
	634.2,195.9 "/>
<rect x="127.8" y="160.7" class="st1" width="35.2" height="441.1"/>
<rect x="-20.1" y="110.3" transform="matrix(0.8793 -0.4763 0.4763 0.8793 -34.8515 118.3457)" class="st1" width="472.3" height="35.2"/>
<g>
	<path class="st1" d="M731.2,537c-2.1,2.6-5,5-8,6.6c-3.7,1.9-7.7,2.9-11.4,2.9c-13.5,0-24.9-11.4-24.9-26.2
		c0-14.2,8.5-22.7,20.5-24.5c8.6-1,16.3,0.1,23,7.1c2.7,2.9,8-1.1,5.1-4.4c-7.7-8.1-17.7-10.9-29.1-9.4
		c-15.1,2.4-26.5,15.1-26.5,31.1c0,19.4,15,33.1,31.8,33.1c4.7,0,10-1.4,14.7-3.5c4.2-2.1,7.9-5,10.6-8.7
		C739.4,537.3,733.5,533.7,731.2,537z"/>
	<path class="st1" d="M806.6,489c-3.4-0.4-6.7-0.5-10.4,0c-15.5,2.4-25.9,15.6-25.9,30.9c0,20.8,14.1,33.3,31.7,33.3
		c16.6,0,31.3-12.9,31.3-33.3C833.3,503.8,821.7,491.3,806.6,489z M802,546.4c-13.8,0-24.4-10.2-24.4-26.2
		c0-13.3,7.7-22.8,19.6-24.7c2.7-0.4,5.6-0.4,8.5,0c12,2,20.3,12,20.3,24.7C826.1,536.6,815.2,546.4,802,546.4z"/>
	<path class="st1" d="M916.6,492.2v34.6l1,14.8l-37.7-50.4c-2.5-3.6-7.9-2.8-7.9,2.1v56.1c0,4.9,7.4,4.8,7.4,0v-34.5l-0.8-13.5
		l36.6,49c2.1,3.4,8.8,2.9,8.8-2v-56.2C924,487.9,916.6,488.1,916.6,492.2z"/>
	<path class="st1" d="M989.6,517.4c-11.3-0.9-21.1-1.8-21.1-10.3c0-8.9,12.7-11.5,19.3-11.5c7,0,17.5,1.3,20.4,8.7
		c1.5,3.3,8.1,1.6,6.7-2.3c-4.1-11.2-16.9-13.6-27.2-13.6c-11.9,0-26.8,5.8-26.8,18.7c0,14.6,14.5,15.8,28,16.9
		c10.8,0.9,21,1.6,21,10.1c0,9.9-12.9,12.4-21.2,12.4c-7.8,0-18.7-1.8-21.2-9.9c-0.8-4-8.4-2.5-7.2,1.8
		c3.2,11.8,18.5,15.2,28.5,15.2c12,0,28.8-4.6,28.8-19.6C1017.4,519.3,1003.1,518.6,989.6,517.4z"/>
	<path class="st1" d="M1097.6,489.7H1047c-4.6,0-4.6,6.7,0,6.7h21.7v53.1c0,2.4,1.9,3.6,3.5,3.6c1.7,0,3.7-1.2,3.7-3.6
		c0-17.6-0.1-35.5-0.1-53.1h21.8C1102.4,496.5,1102.4,489.7,1097.6,489.7z"/>
	<path class="st1" d="M1187.4,510.8c0-11.4-8.6-21-25.5-21h-23.2c-2.2,0-3.6,1.4-3.6,3.4v56.2c0,4.4,7.2,4.4,7.2-0.1v-19h19
		l19.8,21.4c3.2,3.3,8.6-1,4.9-4.7l-15.8-17.1C1182.1,527.8,1187.4,520.6,1187.4,510.8z M1162,524.1h-19.8v-27.8h19.8
		c11.3,0,18.1,6.5,18.2,14.5C1180.4,518.1,1174.8,524.1,1162,524.1z"/>
	<path class="st1" d="M1275,492.4v32.1c0,28.3-43,28.3-43,0v-32.1c0-4.4-7.4-4.4-7.4-0.1v32.2c0,18.8,14.6,28.3,28.9,28.3
		c14.3,0,28.8-9.5,28.8-28.3v-32.2C1282.3,487.6,1275,487.6,1275,492.4z"/>
	<path class="st1" d="M1372.2,537c-2.1,2.6-5,5-8,6.6c-3.7,1.9-7.7,2.9-11.4,2.9c-13.5,0-24.9-11.4-24.9-26.2
		c0-14.2,8.5-22.7,20.5-24.5c8.6-1,16.3,0.1,23,7.1c2.7,2.9,8-1.1,5.1-4.4c-7.7-8.1-17.7-10.9-29.1-9.4
		c-15.1,2.4-26.5,15.1-26.5,31.1c0,19.4,15,33.1,31.8,33.1c4.7,0,10-1.4,14.7-3.5c4.2-2.1,7.9-5,10.6-8.7
		C1380.4,537.3,1374.5,533.7,1372.2,537z"/>
	<path class="st1" d="M1460.7,489.7h-50.7c-4.6,0-4.6,6.7,0,6.7h21.7v53.1c0,2.4,1.9,3.6,3.5,3.6c1.7,0,3.7-1.2,3.7-3.6
		c0-17.6-0.1-35.5-0.1-53.1h21.8C1465.5,496.5,1465.5,489.7,1460.7,489.7z"/>
	<path class="st1" d="M1497.5,491.1v58.5c0,4.7,7.3,4.5,7.3,0v-58.5C1504.8,486.3,1497.5,486.2,1497.5,491.1z"/>
	<path class="st1" d="M1577.6,489c-3.4-0.4-6.8-0.5-10.4,0c-15.5,2.4-25.9,15.6-25.9,30.9c0,20.8,14.1,33.3,31.7,33.3
		c16.6,0,31.3-12.9,31.3-33.3C1604.3,503.8,1592.7,491.3,1577.6,489z M1573,546.4c-13.8,0-24.4-10.2-24.4-26.2
		c0-13.3,7.7-22.8,19.6-24.7c2.7-0.4,5.6-0.4,8.5,0c12,2,20.3,12,20.3,24.7C1597.1,536.6,1586.2,546.4,1573,546.4z"/>
	<path class="st1" d="M1687.6,492.2v34.6l1,14.8l-37.7-50.4c-2.5-3.6-7.9-2.8-7.9,2.1v56.1c0,4.9,7.4,4.8,7.4,0v-34.5l-0.8-13.5
		l36.6,49c2.1,3.4,8.8,2.9,8.8-2v-56.2C1695,487.9,1687.6,488.1,1687.6,492.2z"/>
</g>
</svg>
