<svg xmlns="http://www.w3.org/2000/svg" width="50" height="50" viewBox="0 0 50 50">
  <path id="Subtração_1" data-name="Subtração 1" d="M-2323,50a24.844,24.844,0,0,1-9.731-1.965,24.917,24.917,0,0,1-7.947-5.358,24.922,24.922,0,0,1-5.358-7.947A24.845,24.845,0,0,1-2348,25a24.845,24.845,0,0,1,1.965-9.731,24.922,24.922,0,0,1,5.358-7.947,24.917,24.917,0,0,1,7.947-5.358A24.844,24.844,0,0,1-2323,0a24.844,24.844,0,0,1,9.731,1.965,24.917,24.917,0,0,1,7.947,5.358,24.922,24.922,0,0,1,5.358,7.947A24.84,24.84,0,0,1-2298,25a24.84,24.84,0,0,1-1.965,9.731,24.922,24.922,0,0,1-5.358,7.947,24.917,24.917,0,0,1-7.947,5.358A24.844,24.844,0,0,1-2323,50Zm-9.062-33h0L-2335,19.938l12.5,12.5,12.5-12.5L-2312.937,17l-9.562,9.542L-2332.062,17Z" transform="translate(2348)" fill="#000f50"/>
</svg>
