<?xml version="1.0" encoding="utf-8"?>
<!-- Generator: Adobe Illustrator 26.1.0, SVG Export Plug-In . SVG Version: 6.00 Build 0)  -->
<svg version="1.1" id="Camada_1" xmlns="http://www.w3.org/2000/svg" xmlns:xlink="http://www.w3.org/1999/xlink" x="0px" y="0px"
	 viewBox="0 0 50 50" style="enable-background:new 0 0 50 50;" xml:space="preserve">
<style type="text/css">
	.st0{fill:#E6E6E6;}
	.st1{fill:#313536;}
</style>
<path class="st0" d="M48,15.3c-1.3-3-3.1-5.7-5.4-7.9c-2.3-2.3-5-4.1-7.9-5.4c-3.1-1.3-6.4-2-9.7-2c-3.3,0-6.7,0.7-9.7,2
	c-3,1.3-5.7,3.1-7.9,5.4C5,9.6,3.2,12.3,2,15.3c-1.3,3.1-2,6.4-2,9.7c0,3.3,0.7,6.7,2,9.7c1.3,3,3.1,5.7,5.4,7.9
	c2.3,2.3,5,4.1,7.9,5.4c3.1,1.3,6.4,2,9.7,2c3.3,0,6.7-0.7,9.7-2c3-1.3,5.7-3.1,7.9-5.4c2.3-2.3,4.1-5,5.4-7.9c1.3-3.1,2-6.4,2-9.7
	C50,21.7,49.3,18.3,48,15.3z"/>
<path class="st1" d="M28.1,25l6.7-6.7c0.9-0.9,0.9-2.2,0-3.1c-0.9-0.9-2.2-0.9-3.1,0L25,21.9l-6.7-6.7c-0.9-0.9-2.2-0.9-3.1,0
	c-0.9,0.9-0.9,2.2,0,3.1l6.7,6.7l-6.7,6.7c-0.9,0.9-0.9,2.2,0,3.1c0.4,0.4,1,0.6,1.5,0.6s1.1-0.2,1.5-0.6l6.7-6.7l6.7,6.7
	c0.4,0.4,1,0.6,1.5,0.6s1.1-0.2,1.5-0.6c0.9-0.9,0.9-2.2,0-3.1L28.1,25z"/>
</svg>
