<svg xmlns="http://www.w3.org/2000/svg" width="100" height="100" viewBox="0 0 100 100">
  <g id="Grupo_131" data-name="Grupo 131" transform="translate(-4380 834)">
    <g id="Grupo_127" data-name="Grupo 127">
      <g id="Grupo_114" data-name="Grupo 114" transform="translate(5102.175 -323.366)">
        <path id="Caminho_36" data-name="Caminho 36" d="M-672.175-410.634a49.692,49.692,0,0,1-19.463-3.931,49.813,49.813,0,0,1-15.892-10.714,49.825,49.825,0,0,1-10.714-15.892,49.693,49.693,0,0,1-3.931-19.463,49.689,49.689,0,0,1,3.931-19.463A49.818,49.818,0,0,1-707.53-495.99,49.846,49.846,0,0,1-691.638-506.7a49.692,49.692,0,0,1,19.463-3.93,49.688,49.688,0,0,1,19.463,3.93A49.835,49.835,0,0,1-636.82-495.99,49.837,49.837,0,0,1-626.1-480.1a49.688,49.688,0,0,1,3.93,19.463,49.692,49.692,0,0,1-3.93,19.463,49.844,49.844,0,0,1-10.715,15.892,49.8,49.8,0,0,1-15.892,10.714A49.689,49.689,0,0,1-672.175-410.634Zm0-93.41a43.459,43.459,0,0,0-43.409,43.41,43.458,43.458,0,0,0,43.409,43.409,43.459,43.459,0,0,0,43.41-43.409A43.46,43.46,0,0,0-672.175-504.044Z" fill="#f0f0fa"/>
      </g>
      <g id="Grupo_115" data-name="Grupo 115" transform="translate(4405.469 -805.376)">
        <path id="Caminho_60" data-name="Caminho 60" d="M38.012,21.42a2.536,2.536,0,0,1-3.555,0L23.343,10.331,5.815,27.835,4.174,26.268a7.458,7.458,0,0,1,0-10.542L14.716,5.185a7.458,7.458,0,0,1,10.542,0l12.755,12.73A2.476,2.476,0,0,1,38.012,21.42Zm1.74-5.271a4.982,4.982,0,0,1,0,7.036c-3.158,3.158-6.489.547-7.036,0l-9.348-9.348L9.52,27.685a2.476,2.476,0,0,0,0,3.506,2.506,2.506,0,0,0,3.531,0L24.537,19.7,26.3,21.47,14.815,32.956a2.476,2.476,0,0,0,0,3.506,2.506,2.506,0,0,0,3.531,0L29.833,24.975,31.6,26.741,20.111,38.227a2.479,2.479,0,0,0,3.506,3.506L35.1,30.246l1.765,1.765L25.382,43.5A2.479,2.479,0,0,0,28.888,47L49.574,26.268a7.458,7.458,0,0,0,0-10.542L39.032,5.185a7.462,7.462,0,0,0-10.393-.149Z" transform="translate(-1.993 -3.002)" fill="#f0f0fa"/>
      </g>
    </g>
  </g>
</svg>
